<?xml version="1.0" standalone="no"?>
<!DOCTYPE svg PUBLIC "-//W3C//DTD SVG 20010904//EN"
 "http://www.w3.org/TR/2001/REC-SVG-20010904/DTD/svg10.dtd">
<svg version="1.0" xmlns="http://www.w3.org/2000/svg"
 width="460.000000pt" height="460.000000pt" viewBox="0 0 460.000000 460.000000"
 preserveAspectRatio="xMidYMid meet">
<metadata>
Created by potrace 1.11, written by Peter Selinger 2001-2013
</metadata>
<g transform="translate(0.000000,460.000000) scale(0.100000,-0.100000)"
fill="#000000" stroke="none">
<path d="M2255 4577 c-22 -13 -132 -77 -245 -142 -287 -166 -334 -193 -495
-285 -60 -35 -135 -78 -165 -96 -30 -18 -66 -39 -80 -46 -14 -7 -43 -23 -65
-37 -22 -14 -53 -32 -70 -41 -27 -15 -100 -57 -290 -168 -33 -19 -81 -46 -107
-61 -26 -14 -132 -75 -237 -136 l-190 -110 -1 -1155 0 -1155 97 -55 c53 -30
112 -64 132 -75 20 -11 56 -32 81 -47 110 -63 498 -288 530 -306 55 -31 142
-82 305 -176 83 -49 168 -98 190 -111 22 -12 67 -38 100 -57 33 -19 110 -63
170 -98 137 -78 155 -89 235 -135 36 -21 84 -49 107 -62 l43 -25 42 25 c24 13
70 40 103 59 33 19 110 63 170 98 61 35 124 71 140 81 17 10 53 31 80 47 28
16 79 46 115 67 36 20 83 47 105 60 37 20 160 91 300 173 33 19 76 43 95 54
32 18 420 243 530 306 25 15 61 36 81 47 20 11 79 45 132 75 l97 55 0 1155 0
1155 -97 55 c-53 30 -122 70 -152 88 -31 17 -76 43 -101 57 -48 27 -88 51
-185 107 -105 61 -259 150 -300 173 -50 28 -120 69 -310 179 -82 49 -168 98
-190 111 -50 28 -107 61 -365 210 -113 65 -223 129 -245 142 -22 12 -42 23
-45 23 -3 0 -23 -11 -45 -23z m240 -1441 c138 -30 253 -117 308 -234 28 -59
32 -79 35 -167 3 -83 0 -112 -18 -165 -54 -164 -126 -253 -435 -545 -132 -124
-184 -178 -179 -186 3 -5 157 -9 345 -9 l339 0 0 -135 0 -135 -550 0 -550 0 0
117 0 117 253 254 c340 343 374 381 428 476 29 52 33 71 37 145 4 103 -13 143
-74 178 -105 60 -257 28 -414 -88 -19 -14 -40 -29 -47 -32 -10 -7 -183 186
-183 204 0 16 158 123 230 157 41 19 107 40 145 47 92 17 254 18 330 1z
m-1145 -791 l0 -785 -166 0 -165 0 3 610 3 609 -50 -48 c-58 -55 -244 -206
-249 -200 -1 2 -35 45 -74 94 -39 50 -71 94 -72 98 -1 7 244 211 300 249 14
10 63 49 110 88 l85 70 138 0 137 0 0 -785z m2520 0 l0 -785 -165 0 -165 0 -2
605 -3 606 -40 -38 c-55 -52 -245 -207 -248 -202 -8 10 -132 166 -144 180 -11
14 7 31 143 140 86 68 199 159 252 202 l97 77 137 0 138 0 0 -785z"/>
</g>
</svg>
